# File created by Blade
# Date/Time:  Wed Jan 21 14:43:55 2015
# Frame Rate: 120.000 fps
#------------------------------------------------------
:FULLY-SPECIFIED
:DEGREES
1081
root 25.738575 35.028942 -19.468060 -167.945087 4.767047 191.648509
Spine -13.833477 1.522699 -36.578573
Head 26.207107 1.113886 -27.833819
LeftShoulder -15.871728 -53.773873 40.242926
LeftArm 45.145368 -30.475010 -7.759008
LeftForeArm -73.188482 0.000000 81.429812
LeftHand 2.186791 -0.000000 -18.115263
LeftHandThumb1 -26.253704 0.000000 33.147579
RightShoulder -12.204950 25.084500 -60.301093
RightArm 121.850480 63.341563 78.095141
RightForeArm 40.404697 -0.000000 98.468705
RightHand 13.749934 0.000000 8.209816
RightHandThumb1 -24.326973 -0.000000 -32.862282
LeftUpLeg -2.596330 24.341159 21.750685
LeftLeg -8.006934 -0.000000 0.000000
LeftFoot -15.038356 25.151392 -16.010296
LeftToeBase 30.995487 -0.000000 -0.000000
RightUpLeg -5.261667 1.437850 18.311233
RightLeg -3.747387 -0.000000 0.000000
RightFoot -17.532638 -20.432988 13.737621
RightToeBase 23.845244 -0.000000 -0.000000
1082
root 25.734981 35.029146 -19.475193 -167.939092 4.671367 191.632395
Spine -13.816940 1.577588 -36.571224
Head 26.175064 1.060132 -27.848955
LeftShoulder -15.918169 -53.719536 40.283711
LeftArm 45.172483 -30.443948 -7.789420
LeftForeArm -73.124624 -0.000000 81.427680
LeftHand 2.176107 -0.000000 -18.017708
LeftHandThumb1 -26.253704 0.000000 33.147579
RightShoulder -12.087426 24.990726 -60.228716
RightArm 122.095805 63.429123 78.292610
RightForeArm 40.489411 -0.000000 98.531562
RightHand 13.805471 -0.000000 8.325192
RightHandThumb1 -24.326973 -0.000000 -32.862282
LeftUpLeg -2.650634 24.281664 21.722733
LeftLeg -8.000860 -0.000000 0.000000
LeftFoot -15.043999 25.130964 -16.030629
LeftToeBase 30.967041 -0.000000 -0.000000
RightUpLeg -5.276789 1.448426 18.296455
RightLeg -3.748702 -0.000000 0.000000
RightFoot -17.557954 -20.522960 13.716078
RightToeBase 23.836022 -0.000000 -0.000000
1083
root 25.731241 35.029521 -19.480425 -167.921802 4.598244 191.620410
Spine -13.821359 1.650397 -36.577602
Head 26.154089 1.041048 -27.806678
LeftShoulder -15.934174 -53.643882 40.277023
LeftArm 45.239201 -30.452688 -7.812299
LeftForeArm -73.103405 -0.000000 81.407281
LeftHand 2.132052 -0.000000 -17.947760
LeftHandThumb1 -26.253704 0.000000 33.147579
RightShoulder -12.036594 24.890695 -60.155576
RightArm 122.320359 63.394038 78.487418
RightForeArm 40.519380 -0.000000 98.609893
RightHand 13.786950 -0.000000 8.399860
RightHandThumb1 -24.326973 -0.000000 -32.862282
LeftUpLeg -2.703335 24.236193 21.698218
LeftLeg -7.995248 -0.000000 0.000000
LeftFoot -15.048945 25.129883 -15.956084
LeftToeBase 31.102819 -0.000000 -0.000000
RightUpLeg -5.306869 1.489539 18.280991
RightLeg -3.736854 -0.000000 0.000000
RightFoot -17.597926 -20.612860 13.721332
RightToeBase 23.858783 -0.000000 -0.000000
1084
root 25.726887 35.029934 -19.485172 -167.896646 4.527241 191.607362
Spine -13.833225 1.729591 -36.578407
Head 26.133849 1.022827 -27.769517
LeftShoulder -15.924813 -53.675988 40.264341
LeftArm 45.210272 -30.375352 -7.737751
LeftForeArm -73.098873 -0.000000 81.391782
LeftHand 2.168539 -0.000000 -18.029950
LeftHandThumb1 -26.253704 0.000000 33.147579
RightShoulder -12.003600 24.887552 -60.143925
RightArm 122.264601 63.401827 78.433111
RightForeArm 40.460049 -0.000000 98.690513
RightHand 13.881261 -0.000000 8.433776
RightHandThumb1 -24.326973 -0.000000 -32.862282
LeftUpLeg -2.767897 24.212916 21.662084
LeftLeg -7.992068 -0.000000 0.000000
LeftFoot -15.031466 25.097884 -15.967881
LeftToeBase 31.036329 -0.000000 -0.000000
RightUpLeg -5.345670 1.528070 18.264870
RightLeg -3.726114 -0.000000 0.000000
RightFoot -17.617471 -20.714388 13.706017
RightToeBase 23.849582 -0.000000 -0.000000
1085
root 25.720488 35.030893 -19.490904 -167.877022 4.445367 191.591722
Spine -13.850088 1.786763 -36.599840
Head 26.140846 0.937268 -27.787720
LeftShoulder -15.275533 -52.740612 39.329042
LeftArm 45.597638 -31.431391 -7.391618
LeftForeArm -73.348528 -0.000000 81.050677
LeftHand 2.214092 0.000000 -18.438874
LeftHandThumb1 -26.253704 0.000000 33.147579
RightShoulder -11.913468 24.842030 -60.024341
RightArm 122.333429 63.401679 78.423598
RightForeArm 40.450650 -0.000000 98.763371
RightHand 13.983995 -0.000000 8.522061
RightHandThumb1 -24.326973 -0.000000 -32.862282
LeftUpLeg -2.826220 24.161975 21.625395
LeftLeg -7.994499 -0.000000 0.000000
LeftFoot -15.041531 25.089917 -15.977505
LeftToeBase 31.068775 -0.000000 -0.000000
RightUpLeg -5.376079 1.551605 18.245082
RightLeg -3.721005 -0.000000 0.000000
RightFoot -17.649205 -20.804255 13.720567
RightToeBase 23.813867 -0.000000 -0.000000
1086
root 25.716081 35.032031 -19.496438 -167.852942 4.362878 191.583245
Spine -13.848215 1.852712 -36.596710
Head 26.099952 0.882592 -27.843114
LeftShoulder -15.178799 -52.554950 39.150482
LeftArm 45.691539 -31.611699 -7.362949
LeftForeArm -73.271788 -0.000000 81.006223
LeftHand 2.259072 -0.000000 -18.453215
LeftHandThumb1 -26.253704 0.000000 33.147579
RightShoulder -11.885542 24.786182 -59.981665
RightArm 122.449135 63.393212 78.485469
RightForeArm 40.372569 -0.000000 98.839556
RightHand 13.875436 -0.000000 8.453252
RightHandThumb1 -24.326973 -0.000000 -32.862282
LeftUpLeg -2.882653 24.104976 21.601794
LeftLeg -8.003556 -0.000000 0.000000
LeftFoot -15.038664 25.092606 -15.936289
LeftToeBase 31.150118 -0.000000 -0.000000
RightUpLeg -5.398842 1.565385 18.233472
RightLeg -3.737058 -0.000000 0.000000
RightFoot -17.665204 -20.849632 13.750867
RightToeBase 23.869234 -0.000000 -0.000000
1087
root 25.710802 35.033224 -19.500693 -167.818235 4.274387 191.555701
Spine -13.848382 1.888590 -36.606093
Head 26.039695 0.863604 -27.881182
LeftShoulder -15.195084 -52.555179 39.132216
LeftArm 45.680336 -31.589826 -7.312352
LeftForeArm -73.241126 -0.000000 81.013572
LeftHand 2.245995 0.000000 -18.433462
LeftHandThumb1 -26.253704 0.000000 33.147579
RightShoulder -11.851793 24.677616 -59.930583
RightArm 122.693336 63.390442 78.647275
RightForeArm 40.315410 -0.000000 98.873493
RightHand 13.884059 0.000000 8.478001
RightHandThumb1 -24.326973 -0.000000 -32.862282
LeftUpLeg -2.961502 24.065434 21.544310
LeftLeg -8.014537 -0.000000 0.000000
LeftFoot -15.009709 25.048299 -16.009791
LeftToeBase 31.002646 -0.000000 -0.000000
RightUpLeg -5.444558 1.575317 18.203582
RightLeg -3.744413 -0.000000 0.000000
RightFoot -17.642577 -20.889902 13.820360
RightToeBase 23.564465 -0.000000 -0.000000
